<svg width="512" height="512" viewBox="0 0 512 512" fill="none" xmlns="http://www.w3.org/2000/svg">
  <rect width="512" height="512" rx="128" fill="#E5F4F3"/>
  <g transform="translate(96, 96) scale(0.625)">
    <!-- Dog paw print, styled in brand colors -->
    <path d="M256 84.25c-12.75 0-23-4.75-30.5-14.25s-11.25-24-11.25-43.5c0-14.25 2.5-26 7.5-35.75S233.75-32 244-32c10 0 18.5 3.5 25 10.75s10 17.75 10 31.75c0 14.25-3.5 25.5-10.5 33.75S267.75 59 256 59zm0-64c-9.5 0-17 2.75-22.5 8.5s-8.25 13.5-8.25 23.25c0 14.5 3 25.75 9.25 33.75S248.25 96 259 96c9.25 0 16.5-2.75 21.75-8.5s8-13 8-22.5c0-15-3-26.25-9-33.75S265.5 20.25 256 20.25zm122.75-39c-7.75 3.5-16.25 5.25-25 5.25-13 0-23.5-3.75-31.75-11.5s-12.25-20-12.25-36.5c0-14.5 2.5-26 7.75-34.75S330.5-112 342-112c9.5 0 17.25 3.25 23.5 9.5s9.25 15.75 9.25 28c0 13.75-3.25 24.25-10 31.75z" fill="#FF7F50"/>
    <path d="M376.5-61c-9.5 0-17-2.75-22.5-8.5s-8.25-13.75-8.25-23.75c0-14.5 3-25.75 9.25-33.75S368.25-137 379-137c9.25 0 16.5 2.75 21.75 8.25s7.75 13 7.75 22.75c0 14.75-3 26.25-9 34s-14 11.5-23 11.5zm-244.25-13c-8-0.25-14.75-4-20.25-11s-8.25-17.5-8.25-31.75c0-10.5 2.75-19.75 8-28S125-159 135-159c11 0 19.25 4.5 25 13.25s8.5 22.5 8.5 41c0 5.5-0.75 10-2.25 13.75s-3.25 6.75-5.75 9-5.5 3.5-9.25 4.5-8.75 1.75-15 2.5c-1 0-1.75 0.25-3 0.5s-2 0.5-1.5 0.5zm-0.25-64C122-138 116-135.5 111-131S103.5-120.25 103.5-113c0 14.75 3 26 9 33.75S125.75-68 134.75-68c8.5 0 14.75-2.75 19-8.25s6.25-13.5 6.25-24c0-14.75-2.75-26-8-33.75S141.25-143.75 132-143.75zM395-40.75c-8 0-14.75-4.5-20.25-13.75s-8.25-23-8.25-41.75c0-5.25 0.75-10 2.25-14s3.5-7.25 5.75-9.5 5.25-3.75 9-4.75 9-1.75 15-2.5c9.75-0.25 17.5 3.25 23 10.5s8.25 18.75 8.25 33.5c0 11-2.5 20-7.75 27.5s-14.75 11.25-27 11.25z" fill="#FF7F50"/>
    <path d="M395-88c-9.5 0-17-2.75-22.5-8.5s-8.25-13.75-8.25-23.75c0-14.5 3-25.75 9.25-33.75s13.25-12 24-12c9.25 0 16.5 2.75 21.75 8.25s7.75 13 7.75 22.75c0 14.75-3 26.25-9 34s-14 11.5-23 11.5zM258.75 146c-21.5 0-38-6.25-49.5-19s-17.25-31.75-17.25-57.75c0-22.75 4-42 11.75-57.5S226-24 244-24c14.5 0 28 6.25 40.25 19S304.5-19.25 319-34.5c3.75-3.75 8.25-6.75 13.75-9s10.75-3.5 16-3.5c24 0 42.75 6 56.75 18.25s21 30.25 21 54c0 23-5 41.5-14.75 56s-25.25 21.75-46 21.75c-13.75 0-25.75-5.75-35.75-17s-17.75-23-22.75-35c-3.5 18.75-9.5 34-18 46S269.25 146 258.75 146z" fill="#9DC7C4"/>
  </g>
</svg>
