<?xml version="1.0" encoding="UTF-8"?>
<svg id="Layer_1" data-name="Layer 1" xmlns="http://www.w3.org/2000/svg" viewBox="0 0 1174.47 1174.47">
  <defs>
    <style>
      .cls-1 {
        fill: #151f21;
      }

      .cls-2 {
        fill: #95c2b9;
      }

      .cls-3 {
        fill: #d4e5e4;
      }

      .cls-4 {
        fill: #384f51;
      }

      .cls-5 {
        fill: #b3d6d4;
      }

      .cls-6 {
        fill: #a5b7b6;
      }

      .cls-7 {
        fill: #89b8b1;
      }

      .cls-8 {
        fill: #141817;
      }
    </style>
  </defs>
  <polygon class="cls-6" points="1174.47 0 1174.47 1174.47 0 1174.47 1173.55 1173.55 1174.47 0"/>
  <path class="cls-1" d="M848.74,862.5v-6.42h94.05c1.01,0,6,1.36,4.16,3.24-1.12,1.14-9.15,3.18-10.58,3.18h-87.63Z"/>
  <path class="cls-1" d="M311.05,856.99l-.13,4.46c-1.24.62-2.61.92-3.99,1.05-27.63,2.62-59.17-1.99-87.22.04-3.67.19-3.33-2.62-3.17-5.55h94.51Z"/>
  <g>
    <path class="cls-1" d="M725.01,841.52c-.5.56-.1,12.69-.14,15-.03,1.55-.92,3.11-.95,4.64-.05,3.03,1.79,6.24.81,9.45-2.12,1.01-4.65,1.87-6.33-.28l-11.89-23.44c-1.3.17-1.5,1.17-1.69,2.26-.9,5.13,1.55,13.44.78,18.84.36.34,5.63-1.21,5.46,2.3-.11,2.36-11.27,2.48-13.06,2.08-1.17-.26-4.92-2.2-2.93-3.47l5.54-1.77c.49-.69.35-1.52.45-2.3.35-2.74-.98-21.33-2.13-22.3-.72-.61-2.8-.15-3.35-1.69-2.05-5.69,8.46-4.65,11.63-2.9l12.18,26.36,1.82-.45-1.84-22.48c-6.69.87-9.45-4.82-1.24-5.16,1.78-.07,11.28,1.48,11.31,2.87-.61,1.88-4.1,2.05-4.43,2.42Z"/>
    <path class="cls-1" d="M462.46,849.65l-.93-8.26-20.06,1.05.83,9.94,8.22-.89v-5.51s3.66,0,3.66,0c.07,2.89-.1,5.81,0,8.71.07,1.92,2.59,8.26-2.29,6.88-1.45-.41-1.39-3.25-1.42-4.54l-7.36.36-.9,9.08c.57,2.45,14.05.72,16.85.47,2.59-1.14.73-10.54,5.66-9.03,2.78.85,1.43,11-1.06,12.91l-28.1,1.57-2.47-2.1c6.88-3.53,4.53-12.19,4.57-19.26.03-4.11,2.82-10.2-4.58-9.66v-3.65c6.9.22,24.34-2.98,30.06-.25,2.59,1.24,4.02,10.35,2.09,11.77l-2.79.4Z"/>
    <path class="cls-1" d="M761.54,836.82c1.04,4.52,2.15,9.21.94,13.75-5.77.64-4.62-6.14-7.75-8.3-3.7-2.54-11.82-2.38-13.65,2.09-.52,1.28-1.57,10.34-1.55,12.12.17,13.9,16.81,15.46,18.36,1.46l-3.52-1.09-.09-3.49c3.2-.66,14.77-2.65,12.81,2.99-.3.87-2.46.9-3.29,4.24-.75,3.04,1.05,12.56-3.59,11.06l-1.48-2.69c-28.1,15.99-34.68-37.23-6.84-33.03,3.31.5,5.2,2.88,9.65.88Z"/>
    <path class="cls-1" d="M554.2,849.65c-3.99.82-3.77-3.48-5.9-5.57-6.31-6.19-19.33.26-12.81,5.47,5.17,4.12,12.77-.62,18.75,5.1,10.23,9.79-6.81,19.1-15.85,17.76-1.59-.23-3.09-1.47-4.89-1.61-2.07-.17-4.13,2.01-5.98-.43-1.97-2.61-.3-9.93-.84-13.38,5.59.13,3.83,6.62,4.73,8.11.17.28,5.29,2.74,5.85,2.85,5.37,1.05,18.21-3.34,14.08-9.49-3.13-4.66-24.46-1.97-23.74-12.89.65-9.91,17.89-7.19,24.19-8.71,2.93.87,2.47,10.23,2.41,12.77Z"/>
    <path class="cls-1" d="M657.95,849.59c-2.65-3.3-2.57-5.48-2.75-9.57-2.03-1.92-5.72-.87-7.92.41l.02,22.09c.95,6.82,7.74.73,7.82,6.85-.79,1.31-1.82,1.29-3.15,1.43-2.79.3-13.61,1.31-15.5.72-6.79-2.12,5.38-5.93,5.69-6.85,1.1-5.43-.64-11.34-.79-16.39-.08-2.71,3.14-7.84-1.37-8.72-10.81-2.1-6.2,6.23-8.64,9.55l-2.83.55c.22-4.18-2.64-8.94.86-12.44,3.28-3.29,11.28-.41,15.23-.37,4.89.04,10.7-2.84,15.59.85.5.69.38,1.49.47,2.27.25,2.01.72,11-2.74,9.62Z"/>
    <path class="cls-1" d="M502.62,837c4.76,12.55-3.93,19.1-4.5,2.68-2.4-1.19-7.57-.93-8.16,2.16-1.19,6.23,1.34,14.24.37,20.68,1.16,6.74,7.78.76,7.89,6.85-.79,1.31-1.82,1.29-3.15,1.43-3.23.35-13.81,1.36-16.09.39-.55-.23-.95-.93-1.41-1.36-1.11-2.57,4.87-2.68,5.97-3.23,3.99-1.97,1.01-14.36.9-18.29-.06-2.18,1.71-4.67.84-7.25-.93-2.74-7.71-1.51-9.86-.46-.4,3.45,1.2,8.61-3.79,9.05-4.26-18.44,4.61-13.18,16.87-12.94,4.16.08,9.35-2,14.12.28Z"/>
    <path class="cls-1" d="M621.24,849.59c-2.34-3.37-3.6-5.79-1.89-10.02-3.41-1-5.88-.39-9.05,1.04l1.83,25.44,4.77.27,1.52,3.06c-.79,1.31-1.82,1.29-3.15,1.43-2.79.3-13.61,1.31-15.5.72-5.77-1.8,3.28-6.27,5.87-5.88l-.18-24.57c-.73-2.22-6.35-1.92-8.14-1.05-2.93,1.43-1.23,6.56-2.67,9.1l-2.83.54c.54-5.19-3.38-11.46,3.23-13.75,4.36,1.33,27.41-1.82,28.76,2.4.61,1.91,1.61,12.99-2.57,11.28Z"/>
    <path class="cls-1" d="M562,872.59c-1.81-.52-1.17-3.91-.31-4.45,1.53-.97,9.59,1.28,10.77-2.59.54-1.77-.92-3.71-.87-5.39.07-2.03,1.01-3.85,1-5.5-.01-4.13-.91-9.05-.97-13.25-.72-.75-11.83,1.69-10.99-2.29,2.97-4.06,7.12-3.17,11.51-3.27,1.73-.04,12.8.03,13.52.22,1.55.4,3.67,3.27,1.95,4.47l-9.43,1.9-.13,24.65,9.22.41-.04,5.09h-25.23Z"/>
    <path class="cls-1" d="M664.77,872.59c-1.81-.52-1.17-3.91-.31-4.45,1.59-1.01,9.39,1.36,10.71-2.58.61-1.81.47-16.45.17-19.13-1.09-9.6-8.91-1.44-11.94-7.31.88-4.19,13.63-3.38,17.02-3.27,3.65.12,12.37-.6,9.97,4.69l-9.43,1.9-.13,24.65,9.22.41-.04,5.09h-25.23Z"/>
    <path class="cls-1" d="M409.32,857.09l.05,8.47,5.36,4.72c-.3,1.39-10.52,2.06-12.66,2.11-6.27.17-1.58-5.31,2.62-5.91l-.49-23.72c-.78-2.69-3.66-2.39-5.97-2.3,3.92-5.77,20.2-4.14,25.63-1.3,10.7,5.6,3.72,16.8-6.01,17.8-2.81.29-5.6-1.25-8.51.13ZM408.3,841.39c-1.79,12.63,5.45,13.8,15.16,8.28,1.97-9.33-8.52-9.46-15.16-8.28Z"/>
  </g>
  <g>
    <path class="cls-1" d="M309.08,702.06c1.21,2.2,1.68,7.06-.08,8.83s-23.51,1.75-25.04.24c-1.97-1.95-2.25-9.06.84-10.28,6.43-2.54,17.33,1.31,24.28,1.21Z"/>
    <g>
      <path class="cls-7" d="M375.28,437.67c7.38.83,14.45-5.56,19.72-10.1s5.41-4.42,11.06-8.2c2.43-1.63,2.21-4.64,3.63-6.47s3.85-1.73,5.11-3.15c1.34-1.53,1.15-5.22,3.3-5.88,1.64-.5,3.69.2,5.32-.18,1.42-.33,2.4-1.49,3.76-1.74,5.72-1.05,8.9.1,8.73,6.31,6.45.52,15.87,4.54,22.23,2.83,1.35-.36,3.29-7.51,8-5.09,1.15.59,1.82,2.67,2.75,3.73.72.82,2.32,1.14,2.55,1.53,1.7,2.85-5.73,44.38-6.21,51.67-.43,6.51-.58,14.46,2.59,20.28,1.18,2.18,1.73,1.22,3.82,1.27.93,19.63,11,39.87,10.13,59.96-21.03,5.17-35.75,17.78-40.73,39.29s-1.65,40.64,7.49,60.12c2.96,6.31,7.55,12.17,10.25,18.64-6.34-1.07-14.34,3.35-20.18,2.76-5.2-.52-14.99-11.51-18.82-15.59-53.46-56.95-71.6-138.14-44.49-211.97Z"/>
      <path class="cls-7" d="M731.29,449.6c6.13-.49-1.05-3.89-1.91-5.25-1.18-1.87.26-3.8-.3-5.77-.99-3.5-7.36-10.01-9.2-14.74-.89-2.29-2.83-10.05-2.32-12.13.15-.61,1.37-.58,1.69-1.39,1.79-4.53,2.99-9.5,5.27-13.82,1.06-2.01,9.22-13.6,10.44-14.33,5.84-3.48,3.49,6.31,6.02,6.83,1.48.31,3.58-1.73,4.07-1.79,2.67-.3,7.97,6.86,9.58,9.23,49.46,73.21,40.09,177.46-17.36,243.1-8.42,9.62-22.56,15.48-30.98,23.81-1.17,1.16-1.4,2.13-1.6,3.7-6.93-2.77-14.46-2.88-21.56-4.61-.8-.2-2.06.38-1.37-1.34,1.18-2.96,5.48-7.67,7.22-11.14,5.05-10.07,4.73-21.48,15.39-26.82,6.99-3.5,11.98-4.87,18.97-9.48,12.14-8.02,29.34-21.05,32.74-35.61l-12.84,2.74c-1.88-1.79,10.71-17.28,12.4-20.17,4.55-7.8,9.05-17.47,8.71-26.63h-6.43c5.45-26.18-1.07-52.25-17.05-73.32-2.51-3.31-6.57-8.38-9.55-11.09Z"/>
      <path class="cls-2" d="M478.96,322.98c.99,1.49,5.51,5.77,5.51,6.88v19.27c2.79,2.7,10.07,1.05,13.51-.26,3.06-1.16,5.92-5.19,9.45-3.4-1.25,8.64-1.95,16.56-4.36,25-10.59,37.16-33.4,72.71-31.44,113.99-2.1-.05-2.64.91-3.82-1.27-3.16-5.82-3.02-13.78-2.59-20.28.49-7.29,7.91-48.82,6.21-51.67-.23-.39-1.83-.71-2.55-1.53-.93-1.06-1.6-3.15-2.75-3.73-4.71-2.41-6.65,4.73-8,5.09-6.36,1.71-15.78-2.31-22.23-2.83.17-6.21-3.01-7.37-8.73-6.31-1.36.25-2.34,1.41-3.76,1.74-1.63.38-3.68-.32-5.32.18-2.15.66-1.96,4.35-3.3,5.88-1.25,1.43-3.63,1.25-5.11,3.15s-1.19,4.84-3.63,6.47c-5.65,3.78-5.72,3.59-11.06,8.2s-12.34,10.93-19.72,10.1c11.94-32.52,31.05-61.01,57.36-84.41,14.86-13.22,26.57-18.03,43.29-27.36,1.35-.75,2.43-1.42,3.04-2.92Z"/>
      <path class="cls-7" d="M666.14,500.98c.05-.08,1.61.42,1.86-.6.34-1.38-.24-3.37.19-5.15,1.77-7.44,5.08-13.61,11.83-17.54,7.08-4.12,14.61-1.46,22,.71,1.77.52,3.01,1.63,2.66-1.28,7.35,26.97,10.91,52.55-4.2,77.92-10.33,17.34-10.32,6.43-19.64-1.31-3.33-2.77-8.82-5.73-12.88-7.31-2.27-.89-10.39-1.79-10.87-3.76.98-7.23,1.3-14.54,2.88-21.7.81-3.65,4.62-17.38,6.17-19.98Z"/>
      <path class="cls-4" d="M717.53,456.94c10.37,6.2,18.28,19.22,22.03,30.73,9.96,30.49-1.74,75.55-26.61,96.37-1.69,1.41-10.48,8.11-11.93,6.87-1.14-2.66-.36-7.01-.92-9.18,1.93-.18,3.23-.95,4.59-2.3,28.88-28.75,33.69-88.2,12.85-122.49Z"/>
      <path class="cls-5" d="M717.53,456.94c20.85,34.29,16.03,93.74-12.85,122.49-1.35,1.35-2.66,2.12-4.59,2.3-.35-1.36-4-5.07-3.48-7.68,33.38-30.69,31.29-86.97,9.89-123.98-.18-1.43-.04-1.6,1.4-1.4,2.88.39,8.09,5.74,9.63,8.27Z"/>
      <path class="cls-2" d="M661.55,322.98c7.53-.7,13.23,5.93,19.56,9.34,23.3,12.57,38.64,22.45,56.15,42.95,2.67,3.13,6.84,8.02,7.79,11.94-.49.06-2.59,2.1-4.07,1.79-2.53-.52-.18-10.31-6.02-6.83-1.22.73-9.38,12.32-10.44,14.33-2.28,4.32-3.48,9.29-5.27,13.82-.32.81-1.54.78-1.69,1.39-.51,2.08,1.43,9.84,2.32,12.13,1.84,4.73,8.21,11.24,9.2,14.74.56,1.98-.88,3.9.3,5.77.86,1.36,8.04,4.75,1.91,5.25-10.11-9.19-30.8-22.22-44.57-15.63-.96,1.39.23,3.5.79,4.83,6.35,15.1,12.3,20.44,17.18,38.33.35,2.91-.89,1.8-2.66,1.28-7.39-2.17-14.92-4.84-22-.71-6.75,3.93-10.06,10.1-11.83,17.54-.42,1.79.15,3.77-.19,5.15-.25,1.02-1.81.51-1.86.6,4.37-27.81-1.11-55.67-10.32-81.89-8.52-24.26-23.85-47.42-22.7-74.09,3.99.69,5.81,4.06,9.87,5.26,2.77.82,11.78,2.05,13.55-.64,1.29-7.77-1.66-13.02,1.15-20.87.99-2.77,2.94-4.14,3.86-5.78Z"/>
    </g>
    <g>
      <path class="cls-1" d="M478.96,322.98c-7.24-10.83-20.81-28.17-22.01-40.84-2.21-23.27,17.54-25.66,31.62-37.18,11.15-9.12,11.35-16.5,27.79-19.92,24.86-5.17,71.77-5.74,96.91-1.96,26.85,4.04,25.5,10.4,44.2,24.62,11.92,9.06,27.25,12.38,26.67,30.63-.44,13.8-15.69,32.34-22.59,44.66-.92,1.63-2.87,3.01-3.86,5.78-2.81,7.85.14,13.1-1.15,20.87-1.77,2.69-10.79,1.46-13.55.64-4.06-1.2-5.89-4.57-9.87-5.26-1.14,26.67,14.18,49.83,22.7,74.09,9.21,26.22,14.69,54.08,10.32,81.89-1.55,2.6-5.36,16.33-6.17,19.98-1.58,7.16-1.91,14.47-2.88,21.7.48,1.97,8.6,2.87,10.87,3.76,4.05,1.58,9.54,4.54,12.88,7.31,9.33,7.75,9.31,18.65,19.64,1.31,15.11-25.37,11.55-50.95,4.2-77.92-4.88-17.89-10.83-23.22-17.18-38.33-.56-1.33-1.74-3.44-.79-4.83,13.77-6.59,34.47,6.43,44.57,15.63,2.98,2.71,7.04,7.78,9.55,11.09,15.98,21.07,22.5,47.14,17.05,73.32h6.43c.35,9.15-4.15,18.83-8.71,26.63-1.68,2.88-14.28,18.37-12.4,20.17l12.84-2.74c-3.4,14.56-20.59,27.59-32.74,35.61-6.98,4.61-11.98,5.98-18.97,9.48-10.66,5.34-10.34,16.75-15.39,26.82-1.74,3.47-6.03,8.18-7.22,11.14-.69,1.72.57,1.14,1.37,1.34,7.1,1.73,14.63,1.84,21.56,4.61,12.82,5.12,21.39,19.44,22.02,33.04,10.95-2.7,24.42.77,35.11-1.13,5.17-.92,8.77-7.53,13.05-7.18s.22,6.55,4.6,7.39,12.43-.21,17.47-.04c19.5.66,46.52-1.24,64.87,1.19,5.52.73,7.07,2.36,10.84,4.72,2.09,1.31,5.34-.04,4.54,4.21-12.77,4.66-25.23.83-38.13.89-28.79.12-57.55,2.04-86.17,1.62l-12.83.3-420.79-.46-2.26-1.41-.45-10.11c8.34.71,16.78-.16,25.27-.03,7.38.11,15.58,3.02,22.85-.93l49.01-.07c2.35-15.48,11.25-26.76,24.9-33.83,5.84.59,13.84-3.82,20.18-2.76-2.7-6.47-7.29-12.33-10.25-18.64-9.14-19.48-12.4-38.91-7.49-60.12s19.69-34.12,40.73-39.29c.87-20.09-9.2-40.32-10.13-59.96-1.96-41.28,20.85-76.84,31.44-113.99,2.41-8.44,3.11-16.36,4.36-25-3.52-1.79-6.39,2.24-9.45,3.4-3.43,1.31-10.71,2.95-13.51.26v-19.27c0-1.12-4.51-5.4-5.51-6.88ZM518.42,299.12c2.32,9.08,5.03,19.1,9.18,27.53-7.24,11.28,6.34,32.01,18.71,30.92,1.22-.11,2.32-1.34,3.31-1.56,1.31-.28,2.83.19,4.59-.43,4.06-1.43,12.05-7.33,11.9-12.02l-16.49-15.99c.81-2.4-.05-5.11,1.97-8.58,6.13-10.53,23.97-9.07,33.81-5.18,1.09,1.85,4.35,6.38,4.58,7.87.6,3.84-3.03,12.52-6.09,14.94-3.64,2.88-15.13,4.94-10.41,10.68,2.41,2.94,13.2,7.7,17.42,7.8.76-2.89-2.22-1.39-3.26-2.69-1.95-2.43,3.44-6.77,4.44-8.56,16.28-29.12-14.27-37.54-11.19-61.62,1.66-12.99,13.2-16.33,24.69-13.38.11-6.94.78-12.49-2.89-18.67-.73-1.22-7.3-9.93-8.11-10.7,4.49-.79,7.77,1.02,11.93,1.84.01,2.45,3.72,8.4,5.27,10.76.84,1.28,2.09,1.98,2.98,1.16-.45-5.35-4.48-8.84-7.34-12.84-2.14-2.99-.05-4.53-6.01-6.37-12.44-3.84-50.14-3.06-63.01.21-11.88,3.02-20.04,18.54-22.31,29.99-2.72,13.72-.99,21.91,2.33,34.9ZM507.41,305.54c-1.82-14.52-4.6-29.85-.86-44.45,2.06-8.03,7.27-15.86,8.2-24.36-1.58-1.73-14.42,12.34-16.08,13.73-15.86,13.29-38.26,15.97-25.7,42.27,6.72,14.08,27,25.67,20.68,43.08,1.24.99,6.06-3.58,7.34-4.58.3-.23,1.5-.21,2.32-.86,2.53-2.03,4.67-8.66,5.02-11.99.49-4.65-.37-8.48-.92-12.85ZM626.69,245.9c5.85,14.35,9.61,29.75,8.24,45.4-.49,5.67-3.04,11.96-3.54,17.56-1.03,11.32,2.92,22.34,13.2,27.87.09-3.96-1.91-8.9-3.22-12.84-.2-.6-.89-.85-.92-.92-.17-.48.17-1.36,0-1.84,2.77.51,1.77-1.4,1.84-3.17.4-10.28,2.43-9.61,5.23-17.75,2.22-6.44,2.38-12.7,2.11-19.46l-5.39.12c-1.78,1.13-2.29,13.49-2.83,15.82-.25,1.08-1.77.45-1.87.58.1-.57-.15-1.37,0-1.84.65-2.01.82-2.08.92-4.59.52-12.9-1.01-27.72-6.42-39.45,6.5,2.43,11.52,7.78,16.52,9.18l13.26,11.97c.73.91,2.27,5.33,2.34,6.38.32,5.36-4.88,14.05-6.42,19.26,5.64-1.91,9.56-9.92,9.17-15.59,7.28-8.56-6.8-18.88-13.85-21.51-1.53-.57-2.81-.26-3.58-.51-2.93-5.25-9.63-8.85-14.26-12.85-.79-.68-2.19-.81-2.26-.91-.2-.28.06-2.12-1.29-3.73-.96-1.15-6.99-5.48-8.39-5.45-5.44.14,1,7.22,1.42,8.26ZM602.57,290.58c3.42-2.82,2.86-9.79-2.06-10.71-12.69-2.38-5.95,17.31,2.06,10.71ZM582.64,326.64c.34-9.89-17.66-10.59-23.22-6.48-6.39,4.73,7.51,12.37,11.27,10.63s4.64-7.52,11.95-4.15ZM606.5,345.92c-1.93,4.41-6.88,8.3-11.92,8.28l.46,2.74c5.59-.96,13.48-4.12,12.37-11.02.91.15,1.3.2,1.91-.57,1.76-2.25,6.48-15.83,1.31-15.95-1.28-.03-3.24,14.46-4.14,16.53ZM548.7,366.1c-.35,16.1,2.84,34.43,22.94,33.03,5.77-.4,9.45-2.18,12.69-7.04,2.7-4.04,7.57-19.33,5.21-23.26-.91-1.52-17.22-6.2-17.9-5.49.28,2.59-.62,5.59-3.67,5.5v-7.33s-19.27,4.58-19.27,4.58ZM518.42,376.2c-.1-4.58,1.23-10.36-2.29-13.74-1.04,0-2.71,10.15-3.28,12.3-10.71,40.43-32.3,64.22-28.25,110.06,1.47,16.63,8.33,33.68,9.96,50.6.4,4.14-.43,8.73.02,12.82,4.29,39.19,10.84,78.35,11,117.92,2.96.5,6.82-.97,8.26-3.67,4.76,2.29,8.73.73,13.77.92-.43-9.59.55-19.36.03-28.95-.41-7.59-2.48-16.06-2.83-23.78-1.04-23.12,4.6-51.36,1.9-73.47-1.63-13.39-18.68-24.51-19.3-38.05,25.14-3.44,39.48,20.87,48.63,40.37,3.94,8.41,6.41,17.69,11.01,25.69-.88,1.16,1.28,11.85,5.5,10.09l2.75-18.34c-2.81-.09-4.22,3.19-4.59,5.49l-1.82-3.66c.02-.3,0-.61,0-.92.04-1.64,2.09-3.63-.92-4.59.16-2.12-.17-4.31,0-6.42,2.93-37.14-24.66-44.28-47.72-64.68-1.62-1.43-11.25-10.36-9.16-12.39,15.65,2.48,45.27,14.51,53.19,28.92,1.84,3.34,1.52,13.19,5.05,12.36,1.23-.29,9.71-17.26,13.81-21.08,19.38-18.05,55.98-15.15,56.48-50.96.03-2.07-1.01-4.35-.99-5.04.14-4.74,1.54-11.03,1-15.21-.16-1.21-2.27-7.3-2.83-9.56-.84-3.35-.81-8.78-3.66-11.01l-.93,17.43c-1.11,6.94-2.08,14.1-2.75,21.1-4.28,2.19-10.43,12.41-14.21,16.53-12.11,13.21-35.86,24.34-54.07,21.93-14.22-1.88-34.8-18.87-45.5-28.37.25-5.91-4.16-10.44-5.78-15.78-2.27-7.49-2.5-26.04.28-33.3.54-1.42.78-2.65,2.74-2.3-.75,2.32.55,3.98.92,5.5,2.43,10.1,4.5,14.18,9.18,22.94,12.9,24.17,33.27,43.75,62.88,31.22,25.66-10.85,45.16-54.76,38.71-80.97-.23-.92-.26-2.76-1.56-2.55-1.89,23.54-7.06,45.09-30.97,54.83-37.56,15.3-63.17-18.56-70.9-51.17l-1.84,4.58-.91-3.67ZM646.87,499.15c-1.28,9.49-4.18,18.93-5.51,28.44-4.98,35.66-11.64,77.82-13.75,113.33-.43,7.14.3,14.42-.01,21.56h6.42c-1.32-6.61-.54-14.68.01-21.56,2.4-30.09,6.07-60.74,9.17-90.84.42-4.08,2.83-11.11,2.75-14.23.08-13.09,4.23-25.64,6.42-38.54.46-2.69,1.99-5.84,1.93-8.74-.04-1.68-2.15-1.18-2.64-3.81-1.59-8.61,1.54-11.09,2.52-17.34.55-3.5-6.41-31.79-8.2-36.66-.97-2.65-2.01-6.66-5.54-5.92.5,12.71,5.82,24.62,7.32,37.17,1.35,11.24.61,25.89-.9,37.15ZM700.09,581.73c.57,2.17-.21,6.51.92,9.18,1.45,1.24,10.25-5.46,11.93-6.87,24.87-20.82,36.57-65.88,26.61-96.37-3.76-11.5-11.67-24.53-22.03-30.73-1.54-2.54-6.75-7.88-9.63-8.27-1.44-.2-1.57-.03-1.4,1.4,21.4,37.01,23.49,93.3-9.89,123.98-.51,2.61,3.13,6.32,3.48,7.68ZM607.42,545.94c-11.32,28.64-5.9,69.3-9.29,100.36-.67,6.09-3.27,13.92-3.57,19.39-.19,3.56,8.29-.76,9.19-2.3h12.84c1.05-12.38,2.59-24.79,3.67-37.17,2.78-31.88,5.03-64.23,3.72-96.37-.06-1.42-.58-10.16-.97-10.51-1.46-1.3-1.59.51-2.09,1.16-2.2,2.83-6.34,8.36-7.85,11.38-2.22,4.43-3.95,9.75-5.65,14.07ZM531.26,561.54c2.65,22.58,1.36,46.7,3.67,69.73.73,7.28,1.86,28.65,6.42,33.49.86.91,1.27,1.7,2.75,1.37-.82-15.64-3.84-31.16-5.5-46.79-2.04-19.2-1.26-39.55-3.67-57.81-.85-6.43-1.92-13.15-5.96-18.36-.87.03.3,13.64.5,15.13s1.73,2.73,1.79,3.23ZM683.58,609.25c-.43,8.32-3.63,16.35-2.75,24.77,2.06.47,1.49-.27,2.11-1.14,2.27-3.18,4.63-14.13,4.31-18.13,4.12-11.91,1.02-32.44-6.21-42.88-4.49-6.47-13.94-13.68-21.85-14.87-5.37-.81.63,5.22,1.93,6.34,3.29,2.82,7.83,4.23,11.03,7.32,9.02,8.73,12.05,26.52,11.43,38.58ZM483.55,564.29c1.29-11.23-14.56-5.44-19.47-.92-1.85,1.71-9.01,10.91-10.06,13.14-9.11,19.31-.29,77.37,23.1,84.12.54.16,1.26,1.52,2.75.91-.04-9.22-6.69-16.71-8.92-25.48-3.39-13.3-2.9-35.64,1.15-48.81,2.22-7.21,10.77-17.07,11.45-22.96ZM499.15,698.26c2.65-.78,4.59-.57,7.3-2.34,5.89-3.83,8.11-14.53,16.56-14.18.17.84-.2,2.05,0,2.75-3.23,2.07-2.98,7.06-2.6,10.41l.72,1.11,2.8.41c-.74-1.78.93-4.52.92-5.51,4.35-.73,7.42-5.05,10.09-8.26,3.31-.27,8.24,5.29,8.98,7.99.58,2.1-1.03,5.57,2.01,4.85,1.25-3.75,2.12-12.04-1.85-14.23-.85-.5-1.78-.52-2.72-.45-9.85-17.35-45.43-7.87-47.73,10.53-.2,1.63-.29,6.68.45,7.86,1.35,2.18,3.92-.61,5.08-.95ZM479.88,678.07c.02-.16.95-.57.77-1.22-.53-2.79-10.45-4.05-13.17-4.28-19.34-1.59-39.7,4.81-38.53,27.51,4.89-1.51,6.02-7.99,8.76-10.53.94-.87,2.67-.89,3.4-1.62.8-.79.77-2.62,2.1-3.86,2.28-2.14,7.9-3.38,10.98-4.16,4.08,1.85-.35,4.67-1.25,6.55-3.4,7.12-4.74,17.45,5.77,10.36,3.18-2.14,6.07-6.49,9.32-9.03,2.94-2.3,9.12-4.77,11.25-6.9,1.07-1.08.45-1.73.6-2.81ZM598.24,698.26c7.76-1.71,15.16-1.7,22.26-2.97,9.25-1.65,6.19-8.76,2.51-14.46,9.07,1.81,20.95,5.39,21.21,16.41l3.56.11c1.29-7.63-3.55-13.89-9.17-18.36-14.48-11.51-46.2-8.5-47.51,13.59-.12,2.1.51,6.09,2.55,7.12s3.53-1.2,4.59-1.43ZM710.19,690c-10.4-17.53-28.85-21.28-47.55-14.49-.38.54-.27,1.84-.16,2.57.22,1.51.56,1.68,1.32,2.78,2.6,3.75,16.09,14.6,20.34,16.4,6.99,2.96,5.59-1.14,3.28-6.03-2.55-5.38-8.32-7.62-9.33-13.15,8.42.53,24.29,4.69,29.36,11.93,1.18,1.69,1.38,6.98,5.04,7.35,1.84-3.2-1.18-5.48-2.28-7.35Z"/>
      <path class="cls-4" d="M513.83,662.47c2.16-4.07.03-6.7-.04-10.51-.71-41.26-6.46-82-12.02-122.86-4.36-32.04-14.95-65.58-1.23-96.93,1.57-.36,5.58,6.43,6.87,7.78,2.38,2.49,5.74,4.66,8.25,6.89,10.7,9.5,31.28,26.48,45.5,28.37,18.21,2.41,41.96-8.72,54.07-21.93,3.78-4.12,9.92-14.34,14.21-16.53,1.72-.88,6.98-2.13,9.18-2.75-.02.69,1.02,2.97.99,5.04-.5,35.81-37.1,32.91-56.48,50.96-4.1,3.82-12.58,20.79-13.81,21.08-3.53.83-3.21-9.02-5.05-12.36-7.92-14.41-37.54-26.43-53.19-28.92-2.09,2.03,7.54,10.96,9.16,12.39,23.07,20.4,50.65,27.54,47.72,64.68-3.66-2.84-7.17-6.39-11.93-7.34-9.15-19.5-23.5-43.82-48.63-40.37.62,13.54,17.66,24.66,19.3,38.05,2.7,22.11-2.94,50.35-1.9,73.47.35,7.72,2.42,16.19,2.83,23.78.52,9.58-.46,19.35-.03,28.95-5.04-.19-9.01,1.36-13.77-.92Z"/>
      <path class="cls-4" d="M594.57,239.48c.81.77,7.39,9.48,8.11,10.7,3.67,6.18,3,11.73,2.89,18.67-11.49-2.95-23.02.39-24.69,13.38-3.08,24.08,27.47,32.5,11.19,61.62-1,1.8-6.38,6.13-4.44,8.56,1.04,1.3,4.01-.2,3.26,2.69-4.22-.1-15.01-4.86-17.42-7.8-4.72-5.74,6.77-7.8,10.41-10.68,3.06-2.42,6.69-11.1,6.09-14.94-.23-1.49-3.49-6.02-4.58-7.87-.2-.35.04-1.81-.86-3.23-6.36-9.99-25.74-9.81-34.86-3.59-2.06,1.4-9.23,9.92-9.23,11.87v18.81c2.75-.27,8.47-8,9.18-10.09l16.49,15.99c.15,4.7-7.83,10.59-11.9,12.02-1.76.62-3.29.15-4.59.43-.37-3.03-5.31-3.6-7.8-5.51-7.35-5.64-8.48-15.39-12.36-23.23-.42-.85-1.82-.53-1.86-.62-4.14-8.43-6.86-18.45-9.18-27.53,1.74-2.26.73-5.51.92-8.26,7.12-2.39,11.73,1.63,19.27,1.84,1.8.05,3.89-1.08,6.42,0,3.74,1.6,8.1,9.84,11.68.21,3.68-9.88-1.1-21.87-11.66-24.55-12.2-3.11-16.04,10.65-24.8,15.16,1.12-9.21,2.4-17.36,6.69-25.88,11.8-23.46,32.89-18.69,55.28-19.04,3.98-.06,8.7-2.6,12.35.88Z"/>
      <path class="cls-4" d="M518.42,376.2l.91,3.67,1.84-4.58c7.73,32.61,33.34,66.47,70.9,51.17,23.91-9.74,29.07-31.29,30.97-54.83,1.3-.22,1.33,1.63,1.56,2.55,6.46,26.21-13.05,70.11-38.71,80.97-29.6,12.53-49.98-7.06-62.88-31.22,1.02-4.1,1.52-10,.86-14.17-.45-2.86-3.28-5.72-3.61-7.86-1.24-7.86-1.67-17.97-1.84-25.69Z"/>
      <path class="cls-5" d="M518.42,376.2c.16,7.73.59,17.84,1.84,25.69l-6.42-.92c-.37-1.52-1.67-3.18-.92-5.5-1.96-.35-2.2.88-2.74,2.3-2.79,7.25-2.55,25.81-.28,33.3,1.62,5.34,6.03,9.87,5.78,15.78-2.52-2.23-5.87-4.4-8.25-6.89-1.29-1.35-5.31-8.14-6.87-7.78-13.72,31.35-3.13,64.89,1.23,96.93,5.57,40.86,11.31,81.6,12.02,122.86.07,3.81,2.2,6.45.04,10.51-1.44,2.71-5.3,4.18-8.26,3.67-.16-39.57-6.71-78.73-11-117.92-.45-4.1.38-8.69-.02-12.82-1.64-16.92-8.5-33.97-9.96-50.6-4.04-45.84,17.54-69.63,28.25-110.06.57-2.14,2.24-12.3,3.28-12.3,3.52,3.38,2.2,9.16,2.29,13.74Z"/>
      <path class="cls-4" d="M607.42,545.94c1.71-4.32,3.44-9.64,5.65-14.07,1.51-3.02,5.64-8.55,7.85-11.38.5-.64.63-2.46,2.09-1.16.39.35.92,9.09.97,10.51,1.31,32.14-.94,64.49-3.72,96.37-1.08,12.38-2.62,24.79-3.67,37.16h-12.84c.18-.29-.32-1.45.03-2.07.4-.71,1.52-.63,1.73-1.37,1.36-4.66,2.34-14.76,2.82-19.95,2.7-29.31,2.09-61.35.92-90.87-.07-1.77.94-3.68-1.84-3.17Z"/>
      <path class="cls-4" d="M500.98,331.24c.72-4.33-1.37-7.4-3.19-11.03-5.29-10.51-23.06-30.41-21.54-41.65.22-1.6,1.57-4.45,2.76-5.53l22.89-14.27c-4.62,16.17,0,30.98,2.76,46.79.71,4.09-.26,12.53,3.67,12.85-.35,3.33-2.49,9.96-5.02,11.99-.81.65-2.02.63-2.32.86Z"/>
      <path class="cls-5" d="M607.42,545.94c2.78-.51,1.77,1.4,1.84,3.17,1.17,29.53,1.78,61.56-.92,90.87-.48,5.19-1.46,15.29-2.82,19.95-.22.75-1.34.66-1.73,1.37-.35.62.14,1.78-.03,2.08-.9,1.54-9.38,5.86-9.19,2.3.29-5.47,2.9-13.3,3.57-19.39,3.39-31.05-2.03-71.71,9.29-100.36Z"/>
      <path class="cls-5" d="M500.98,331.24c-1.28,1-6.1,5.57-7.34,4.58,6.32-17.41-13.97-28.99-20.68-43.08-12.55-26.31,9.84-28.98,25.7-42.27,1.66-1.39,14.5-15.46,16.08-13.73-.93,8.5-6.14,16.33-8.2,24.36-3.74,14.6-.96,29.93.86,44.45h-2.75c-2.75-15.81-7.38-30.62-2.76-46.79l-22.89,14.27c-1.19,1.08-2.55,3.94-2.76,5.53-1.52,11.24,16.26,31.14,21.54,41.65,1.83,3.63,3.91,6.7,3.19,11.03Z"/>
      <path class="cls-5" d="M607.42,240.4c-.48.03-.92.48-.92.92-4.16-.82-7.44-2.63-11.93-1.84-3.65-3.48-8.37-.94-12.35-.88-22.4.35-43.48-4.42-55.28,19.04-4.29,8.52-5.57,16.67-6.69,25.88-.31,2.53-.73,4.71-.92,7.34s.82,6-.92,8.26c-3.32-12.99-5.05-21.18-2.33-34.9,2.27-11.45,10.42-26.97,22.31-29.99,12.87-3.27,50.56-4.05,63.01-.21,5.96,1.84,3.87,3.38,6.01,6.37Z"/>
      <path class="cls-5" d="M483.55,564.29c-8.56.62-13.32,6.2-17.81,12.93-13.07,19.6-7.87,43.77,1.13,63.85,3.03,6.76,7.18,12.86,10.26,19.57-23.39-6.75-32.21-64.81-23.1-84.12,1.05-2.23,8.21-11.43,10.06-13.14,4.9-4.52,20.76-10.31,19.47.92Z"/>
      <path class="cls-2" d="M548.7,366.1l19.26-4.58v7.33c3.06.08,3.96-2.91,3.68-5.5.68-.71,16.99,3.97,17.9,5.49,2.35,3.93-2.51,19.22-5.21,23.26-3.24,4.85-6.92,6.63-12.69,7.04.3-7.08-9.57-8.63-12.72-14.35-1.9-3.44-1.29-7.26-2.38-10.46-.89-2.59-4.06-4.54-3.28-8.19l-4.55-.04Z"/>
      <path class="cls-4" d="M483.55,564.29c-.68,5.89-9.23,15.75-11.45,22.96-4.05,13.17-4.54,35.51-1.15,48.81,2.23,8.76,8.88,16.26,8.92,25.48-1.49.6-2.2-.76-2.75-.91-3.08-6.7-7.23-12.81-10.26-19.57-9-20.08-14.2-44.25-1.13-63.85,4.49-6.73,9.25-12.3,17.81-12.93Z"/>
      <path class="cls-7" d="M641.37,527.59h1.81c-.7,3.09,2.69,5.05,2.77,8.26s-2.33,10.15-2.75,14.23c-3.1,30.1-6.78,60.75-9.17,90.84-.55,6.88-1.33,14.95-.01,21.55h-6.42c.31-7.13-.41-14.41.01-21.55,2.12-35.51,8.78-77.67,13.75-113.33Z"/>
      <path class="cls-5" d="M633.11,250.49c.25.25.25.67.92.92,5.41,11.74,6.94,26.55,6.42,39.45-1.49.78-.86,3.12-.92,4.59-.15.46.1,1.26,0,1.84-.82,1.02-3.88,12.65-3.77,14.24.13,1.9,1.96,1.41,2.66,2.89.66,1.4,1.28,4.61,2.03,6.73.17.48-.17,1.36,0,1.84l.92.92c1.31,3.94,3.31,8.88,3.22,12.84-10.28-5.53-14.22-16.55-13.2-27.87.51-5.6,3.05-11.89,3.54-17.56,1.36-15.66-2.39-31.06-8.24-45.4,4.56-.97,4.15,2.34,6.42,4.59Z"/>
      <path class="cls-5" d="M585.4,313.8c-9.85-3.89-27.68-5.35-33.81,5.18-2.02,3.47-1.17,6.18-1.97,8.58-.71,2.1-6.43,9.83-9.18,10.09v-18.81c0-1.95,7.18-10.46,9.23-11.87,9.12-6.22,28.5-6.4,34.86,3.59.91,1.42.66,2.88.86,3.23Z"/>
      <path class="cls-5" d="M541.36,680.82c-1.86.14-3.6,1.41-6.42.92-1.63-.28-2.92-1.59-5.92-1.88-13.82-1.34-26.62,3.97-29.86,18.4-1.16.34-3.73,3.13-5.08.95-.74-1.18-.65-6.23-.45-7.86,2.31-18.4,37.89-27.88,47.73-10.53Z"/>
      <path class="cls-5" d="M638.62,678.99c.49,2.71-1.32,1.94-3.08,1.72-3.97-.48-8.25-2.11-12.2-2.53-1.77-.19-3.57-1.01-3.08,1.72-9.84-.7-25.87,6.3-22.02,18.35-1.06.23-2.6,2.44-4.59,1.43s-2.67-5.02-2.55-7.12c1.31-22.09,33.02-25.1,47.51-13.59Z"/>
      <path class="cls-5" d="M479.88,678.07c-6.28,1.56-11.69-.31-17.88.02-2.71.15-5.25,1.16-7.81,1.82-3.08.78-8.69,2.03-10.98,4.16-1.33,1.24-1.3,3.07-2.1,3.86-.73.73-2.46.75-3.4,1.62-2.74,2.54-3.87,9.02-8.76,10.53-1.17-22.69,19.19-29.1,38.53-27.51,2.71.22,12.64,1.49,13.17,4.28.18.65-.75,1.05-.77,1.22Z"/>
      <path class="cls-7" d="M687.25,614.76c-.08-.96-1.83-3.52-.92-5.51h-2.75c.62-12.04-2.41-29.84-11.43-38.57-3.2-3.09-7.74-4.5-11.03-7.32-1.3-1.11-7.3-7.14-1.93-6.34,7.9,1.19,17.36,8.39,21.85,14.87,7.23,10.44,10.33,30.97,6.21,42.88Z"/>
      <path class="cls-4" d="M620.27,679.91c1.65.12,2.19.81,2.75.92,3.68,5.7,6.74,12.82-2.51,14.46-7.11,1.27-14.51,1.26-22.26,2.97-3.85-12.05,12.18-19.05,22.02-18.35Z"/>
      <path class="cls-7" d="M646.87,499.15c1.52-11.26,2.25-25.9.9-37.15-1.5-12.55-6.83-24.46-7.32-37.17,3.52-.74,4.56,3.27,5.54,5.92,1.79,4.87,8.75,33.16,8.2,36.66-.99,6.26-4.11,8.74-2.52,17.34.49,2.64,2.6,2.13,2.64,3.81.06,2.9-1.47,6.06-1.93,8.74l-5.51,1.84Z"/>
      <path class="cls-4" d="M479.88,678.07c-.15,1.08.47,1.73-.6,2.81-2.13,2.14-8.31,4.6-11.25,6.9-3.25,2.54-6.14,6.89-9.32,9.03-10.51,7.09-9.18-3.24-5.77-10.36.9-1.89,5.33-4.7,1.25-6.55,2.57-.65,5.1-1.67,7.81-1.82,6.19-.33,11.6,1.54,17.88-.02Z"/>
      <path class="cls-5" d="M548.7,366.1l4.55.04c-.78,3.65,2.39,5.6,3.28,8.19,1.1,3.2.48,7.02,2.38,10.46,3.16,5.71,13.02,7.26,12.72,14.35-20.1,1.4-23.28-16.94-22.94-33.03Z"/>
      <path class="cls-7" d="M534.93,561.54c2.41,18.25,1.63,38.61,3.67,57.81-2.66-.53-1.97,1.43-1.83,3.17.19,2.4,2.7,8.56-1.84,8.76-2.31-23.03-1.02-47.15-3.67-69.73h3.67Z"/>
      <path class="cls-4" d="M639.53,297.29c.11-.13,1.62.5,1.87-.58.55-2.33,1.05-14.69,2.83-15.82l5.39-.12c.27,6.76.1,13.02-2.11,19.46-2.8,8.14-4.83,7.47-5.23,17.75-.07,1.76.93,3.68-1.84,3.17-.75-2.12-1.37-5.33-2.03-6.73-.7-1.49-2.53-.99-2.66-2.89-.11-1.58,2.95-13.22,3.77-14.24Z"/>
      <path class="cls-7" d="M710.19,690h-2.75c-5.08-7.24-20.94-11.4-29.36-11.93-5.15-.32-10.44.23-15.6,0-.11-.72-.22-2.02.16-2.57,18.7-6.79,37.15-3.04,47.55,14.49Z"/>
      <path class="cls-4" d="M678.07,678.07c1.02,5.53,6.78,7.76,9.33,13.15,2.32,4.89,3.71,8.98-3.28,6.03-4.25-1.8-17.74-12.64-20.34-16.4-.76-1.1-1.09-1.27-1.32-2.78,5.16.23,10.45-.32,15.6,0Z"/>
      <path class="cls-5" d="M527.59,326.65c.04.09,1.44-.23,1.86.62,3.88,7.84,5.02,17.59,12.36,23.23,2.49,1.91,7.42,2.48,7.8,5.51-.99.21-2.09,1.45-3.31,1.56-12.38,1.09-25.95-19.64-18.71-30.92Z"/>
      <path class="cls-4" d="M534.93,681.74v.92c-2.67,3.21-5.74,7.53-10.09,8.26-.02-1.87-1.28-4.55-1.84-6.42-.21-.7.17-1.91,0-2.75-8.44-.35-10.67,10.34-16.56,14.18-2.71,1.77-4.65,1.56-7.3,2.34,3.25-14.43,16.04-19.74,29.86-18.4,3,.29,4.29,1.6,5.92,1.88Z"/>
      <path class="cls-5" d="M582.64,326.64c-7.31-3.37-8.34,2.47-11.95,4.15s-17.66-5.9-11.27-10.63c5.56-4.11,23.56-3.41,23.22,6.48Z"/>
      <path class="cls-4" d="M538.6,619.35c1.66,15.63,4.68,31.15,5.5,46.79-1.47.32-1.89-.46-2.75-1.37-4.56-4.84-5.69-26.21-6.42-33.49,4.54-.2,2.03-6.36,1.84-8.76-.14-1.73-.83-3.69,1.83-3.17Z"/>
      <path class="cls-7" d="M636.78,409.23c.56,2.27,2.67,8.35,2.83,9.56.54,4.18-.86,10.47-1,15.21-2.2.62-7.45,1.87-9.18,2.75.67-7,1.64-14.17,2.75-21.1.26-1.65,1.75-3.92.91-6.43h3.67Z"/>
      <path class="cls-4" d="M652.38,497.31c-2.19,12.89-6.34,25.44-6.42,38.54-.09-3.2-3.47-5.16-2.77-8.24h-1.81c1.33-9.53,4.23-18.97,5.51-28.46l5.51-1.84Z"/>
      <path class="cls-7" d="M620.27,679.91c-.49-2.73,1.31-1.91,3.08-1.72,3.95.42,8.23,2.05,12.2,2.53,1.76.21,3.57.99,3.08-1.72,5.62,4.47,10.46,10.73,9.17,18.36l-3.56-.11c-.25-11.02-12.13-14.6-21.21-16.41-.56-.11-1.1-.8-2.75-.92Z"/>
      <path class="cls-7" d="M567.96,546.86c-.17,2.11.16,4.31,0,6.42-.05.67-1.78,2.88-.91,4.59h1.83c0,.3.02.61,0,.91-.17,2.71,1.2,7.26-1.84,6.42-4.6-8-7.07-17.28-11.01-25.69,4.76.95,8.27,4.5,11.93,7.34Z"/>
      <path class="cls-7" d="M520.25,401.89c.34,2.14,3.16,5,3.61,7.86.66,4.16.16,10.07-.86,14.17-4.67-8.76-6.74-12.84-9.18-22.94l6.42.92Z"/>
      <path class="cls-7" d="M668.9,282.61c-.12-1.77-.69-4.31-2.75-3.67-.06-1.05-1.61-5.47-2.34-6.38l-13.26-11.97c.29.08.64-.09.92,0,.77.25,2.05-.06,3.58.51,7.05,2.63,21.13,12.95,13.85,21.51Z"/>
      <path class="cls-5" d="M602.57,290.58c-8.02,6.6-14.75-13.09-2.06-10.71,4.92.92,5.49,7.89,2.06,10.71Z"/>
      <path class="cls-4" d="M683.58,609.25h2.75c-.91,1.99.84,4.55.92,5.51.32,4-2.03,14.95-4.31,18.13-.62.87-.05,1.61-2.11,1.14-.88-8.42,2.32-16.45,2.75-24.77Z"/>
      <path class="cls-4" d="M568.88,558.79l1.82,3.66c.37-2.3,1.78-5.58,4.59-5.49l-2.75,18.34c-4.22,1.76-6.38-8.93-5.5-10.09,3.04.84,1.66-3.71,1.84-6.42Z"/>
      <path class="cls-2" d="M634.95,246.82c-1.68.48-1.99,2.07-1.84,3.67-2.27-2.25-1.86-5.56-6.42-4.59-.43-1.05-6.86-8.13-1.42-8.26,1.4-.03,7.43,4.3,8.39,5.45,1.35,1.62,1.09,3.46,1.29,3.73Z"/>
      <path class="cls-7" d="M541.36,680.82c.95-.07,1.87-.05,2.72.45,3.97,2.19,3.1,10.48,1.85,14.23-3.04.72-1.44-2.75-2.01-4.85-.74-2.7-5.67-8.26-8.98-7.99v-.92c2.82.49,4.57-.78,6.42-.92Z"/>
      <path class="cls-4" d="M666.14,278.94c2.06-.64,2.63,1.9,2.75,3.67.39,5.67-3.53,13.68-9.17,15.59,1.54-5.21,6.73-13.91,6.42-19.26Z"/>
      <path class="cls-4" d="M534.93,561.54h-3.67c-.06-.5-1.6-1.77-1.79-3.23s-1.37-15.1-.5-15.13c4.04,5.21,5.11,11.93,5.96,18.36Z"/>
      <path class="cls-4" d="M651.46,260.58c-.27-.09-.63.08-.92,0-5-1.4-10.02-6.74-16.52-9.18-.67-.25-.66-.67-.92-.92-.16-1.6.15-3.19,1.84-3.67.07.1,1.47.23,2.26.91,4.63,4,11.33,7.6,14.26,12.85Z"/>
      <path class="cls-7" d="M606.5,345.92c.9-2.06,2.86-16.56,4.14-16.53,5.17.12.45,13.7-1.31,15.95-.6.77-1,.72-1.91.57h-.92Z"/>
      <path class="cls-4" d="M607.42,345.92c1.11,6.9-6.78,10.06-12.37,11.02l-.46-2.74c5.04.02,10-3.87,11.92-8.28h.92Z"/>
      <path class="cls-7" d="M524.84,690.92c0,.99-1.66,3.73-.92,5.51l-2.8-.41-.72-1.11c-.37-3.35-.62-8.34,2.6-10.41.55,1.88,1.82,4.55,1.84,6.42Z"/>
      <path class="cls-4" d="M607.42,240.4c2.86,4,6.89,7.49,7.34,12.84-.89.82-2.14.12-2.98-1.16-1.55-2.37-5.26-8.32-5.27-10.76,0-.44.44-.89.92-.92Z"/>
      <path class="cls-4" d="M636.78,409.23h-3.67c.84,2.5-.65,4.78-.91,6.42l.93-17.43c2.85,2.23,2.83,7.66,3.66,11.01Z"/>
      <path class="cls-7" d="M507.41,305.54c.55,4.37,1.41,8.2.92,12.85-3.93-.31-2.96-8.75-3.67-12.85h2.75Z"/>
      <path class="cls-4" d="M710.19,690c1.11,1.87,4.13,4.15,2.28,7.35-3.66-.37-3.85-5.66-5.04-7.35h2.75Z"/>
      <path class="cls-4" d="M568.88,557.87h-1.83c-.87-1.71.86-3.91.91-4.59,3.01.96.95,2.95.92,4.59Z"/>
      <path class="cls-4" d="M639.53,295.45c.05-1.47-.57-3.8.92-4.59-.1,2.51-.27,2.58-.92,4.59Z"/>
      <path class="cls-4" d="M641.37,323.9l-.92-.92c.02.07.72.32.92.92Z"/>
      <path class="cls-1" d="M545.03,292.7c.29-4.5-.09-10.33-5.02-11.91-7.79,1.34-7.64,8.15-1.4,11.91-7.54-.2-12.14-4.23-19.27-1.84.18-2.63.61-4.81.92-7.34,8.76-4.51,12.6-18.27,24.8-15.16,10.56,2.69,15.34,14.67,11.66,24.55-3.59,9.62-7.94,1.38-11.68-.21Z"/>
      <path class="cls-5" d="M545.03,292.7c-2.54-1.08-4.62.05-6.42,0-6.23-3.75-6.39-10.56,1.4-11.91,4.93,1.57,5.31,7.41,5.02,11.91Z"/>
    </g>
    <g>
      <path class="cls-8" d="M841.27,734.16c1.62,4.79-3.07,6.02-4.66,9.32-2.38,4.93-3.64,15.67-4.4,21.37-1.64,12.36-.06,25.17-3.94,37.3-1.55,4.86-6.24,5.26-9.8,2.06-4.12-3.69-3.11-19.21-3.79-24.65-.45-3.57-2.06-7.54-2.59-11.25-.47-3.28,1.04-7.38-.99-11.33-1.85-.24-1.5-.17-2.05,1.15-2.86,6.81-1.86,15.05-2.53,22.25-.33,3.56-1.4,7.56-1.74,11.11-.18,1.86,1.06,3.49.66,6.08-.79,5.14-5.59,10.52-10.79,6.61-2.95-2.22-1.5-7.61-1.98-10.86-1.42-9.58-2.44-18.96-3.62-28.49-.24-1.92-1.94-3.35-1.79-5.48.14-2,2.56-4.34,1.84-6.95l2.27.93c.91,6.05,4.02,13.02,5.01,18.85.42,2.47-.83,7.82.96,9.13,3.64,2.66,2.6-7.2,2.96-8.98,1.53-7.49,3.55-15.28,4.39-23.13.8-7.42-.98-12.06-9.42-10.35-8.91,1.8-3.42,5.96-3.59,9.17-.44,8.58-6.71-4.83-7.19-5.24-1.66-1.43-9.58-1.7-6.92-6,.95-1.53,9.97-2.66,12.09-2.65,2.7.02,4.77,1.88,7.17,1.73s4.39-2.69,7.41-2.79c5.48-.19,12.74,1.73,17.43,1.97,5.1.25,13.44-4.55,19.6-.87ZM821.21,778.08c3.98.12,2.26-4.21,2.96-6.66,2.66-9.28,2.71-12.88,3.49-22.11.31-3.64,3.73-5.76-.97-9.28-3.35-2.5-7.94-2.62-10.71.7-3.43,4.11.93,6.4,1.39,8.66.31,1.52-.86,3.3-.73,5.2.24,3.41,2.94,9.7,3.6,13,.31,1.56.62,10.06.98,10.49Z"/>
      <path class="cls-8" d="M532.88,797.13c-1.08.56-2.32.18-3.45.23l.69,1.84c5.15-.02-.35,3.47-2.04,4.6-7.71,5.17-12.46,6.8-21.81,4.33-3.87-1.02-9.55-4.91-12.36-7.35-.25-.22-3.76-4.76-3.92-5.05-6.21-11.63-7.06-39.49-1.41-51.6.61-1.3,5.96-7.87,6.97-8.63,3.59-2.72,7.63-1.8,11.32-2.44,5.19-.91,7.47-2.59,13.61-1.54,5.38.92,12.91,9.4,15.19,14.16s4.95,21.09,4.79,26.49c-.12,4.14-2.17,16.47-3.69,20.16-.29.71-3.63,4.67-3.91,4.81ZM526.29,793.29c8.16-9.86,6.2-34.88.19-45.75-2.69-4.86-16.98-6.35-21.87-4.84-11.45,3.53-12.31,30.03-9.95,39.41,1.43,5.68,3.15,4.09,4.91,6.07.69.78.68,2.41,1.85,3.69.83.9,9.02,6.12,10.17,6.34,4.76.91,11.67-1.25,14.71-4.93Z"/>
      <path class="cls-8" d="M400.05,797.36l3.67,1.84c-7.03,9.43-22.53,13.55-32.44,6.28-2.53-1.86-8.56-7.55-9.95-10.23-3.35-6.47-7.05-29.64-5.92-36.75.46-2.87,3.48-12.57,4.82-15.19,2.2-4.3,7.29-8.99,12.05-9.97,2.1-.43,4.19.05,6.14-.29,7.54-1.31,11.48-4.06,18.91,1.42,14.53,10.72,17.64,42.52,10.26,58.03-1.31,2.76-4.32,5.45-7.54,4.86ZM371.87,791.6c.35.46,9,6.32,9.56,6.48,6.43,1.88,15.18-2.06,18.22-8.01,2.87-5.62,3.56-16.27,3.14-22.52-.25-3.75-3.89-19.91-6.46-21.98-2.97-2.4-14.86-3.87-18.71-3.21-6.07,1.04-10.36,7.77-11.41,13.36-1.34,7.12-2.51,19.36-.77,26.25,1.21,4.82,3.52,4.07,5.02,5.52.68.66.4,2.78,1.42,4.11Z"/>
      <path class="cls-8" d="M623.75,734.23c.25.36,1.92,7.47,2.03,8.52.24,2.44.24,16.18-.94,16.98-7.02.31-5.99-12.11-11.03-15.11-1.55-.92-11.07-2.52-13.05-2.14-.51.1-8.36,3.4-8.71,3.71-2.47,2.13-1.97,8.55-.25,11.28,5.08,8.03,17.42,5.13,25.04,7.07,4.68,1.19,12.42,8.44,13.3,13.3.71,3.87-.05,8.23.23,12.17h-3.68s2.75,1.85,2.75,1.85v1.34c-1.99.97-4.4,5.78-5.53,6.43s-2.98.17-3.5.66c-.42.4.31,2.02-.72,2.6-.82.47-12.54,4.12-13.85,4.33-7.36,1.14-10.99-2.66-16.33-2.56-3.07.06-4.7,3.07-8.03,1-1.32-.83-3.21-5.4-3.38-7.04-.34-3.29-.23-11.16-.06-14.61.14-2.9,1.4-5.69.96-8.68,8.6-.2,4.94,13.66,7.26,16.84.63.86,2.39.72,3.28,1.48,5.73,4.94,6.88,6.63,15.63,5.55,3.75-.46,15.28-7.62,16.45-11.07,6.17-18.18-16.74-15.03-27.03-18.76-10.92-3.96-18.16-14.52-11.97-25.74,5.5-9.97,17.32-9.85,27.15-9.63,2.23.05,4.38,1.12,6.42,1.06,1.76-.05.91-1.98,2.68-2.04,1.06-.04,4.4.5,4.9,1.21Z"/>
      <path class="cls-8" d="M849.65,776.71l2.31-1.41c6.55,2.13,3.87,13.97,5.47,16.57.66,1.07,2.7,1.18,3.58,1.96,2.37,2.1,3.05,4.12,6.93,4.97,8.9,1.93,14.48-1.12,21.09-6.57,4.07-3.36,5.17-4.33,4.66-10.01-.95-10.67-12.14-9.12-19.5-10.79-8.19-1.86-17.01-4.19-20.77-12.26-.91-1.95-2.15-6.11-2.02-8.17.02-.37,1.81-6.84,1.99-7.17,5.51-10.33,17.86-9.88,27.9-9.79,1.55.01,3.18,1.01,4.65.97,2.37-.07,3.53-2.29,6.31-1.93,5.28.7,4.39,13.06,4.38,17,0,3.18,1.87,6.6-1.58,9.64-3.55.83-6.65-12.33-10.02-14.74-.61-.44-8.23-2.54-9.34-2.66-8.86-.9-19.67,7.75-11.73,16.38,7.33,7.97,22.32,1.95,31.78,10.17,6.58,5.73,7.2,13.99,5.28,22.04l-2.74-.92c-.44,3.32,3.12.48,1.12,4.33-3.54,6.81-19.74,13.49-27.29,13.16-4.07-.18-7.62-2.8-11.05-2.88-3.05-.07-4.69,2.5-7.1,1.8-.86-.25-4.32-4.61-4.32-4.94v-24.77Z"/>
      <path class="cls-8" d="M778.99,801.04c2.02,2.88-5.89,6.02-7.84,6.35-4.9.83-12.61.19-15.81-4.06-.24-2.93,11.64-8.16,3.96-15.17-3.25-2.97-4.36-.89-7.36-.91-1.29,0-2.65-.84-3.7-.76-5.14.37-8.94,4.35-8.63,9.55.18,2.94,7.63,4.67,6.36,9.57-4.67-.46-23.07,3.34-25.26-.9v-2.79c1.14-1.81,6.54-2.49,8.21-3.73,2.86-2.13,4.98-19.8,6.96-24.31-.9-10.12,2.76-19.67,5.26-29.53,1.72-6.81-.31-12.11,8.14-12.99,7.98-.83,9.46,5.85,10.45,12.34,2.24,14.71,5.52,29.31,8.16,44.14.81,4.56-1.49,7.7,3.85,10.83,1.5.88,7.04,2.07,7.26,2.39ZM749.35,754.32c-4.4,2.65-2.9,8.03-3.47,12.2-.42,3.08-3.25,8.07-.38,10.67,2.62,2.37,11.44.66,11.48-3.21.01-1.28-1.3-2.61-1.57-3.95-.69-3.48-1.25-16.93-6.05-15.71Z"/>
      <path class="cls-8" d="M326.46,731.5c2.25,3.29,3.9,5.56,4.54,9.67,2.37,15.25,5.89,30.37,8.39,45.75.81,4.97-1.52,9.69,4.93,12.5,2.32,1.01,7.07,0,6.07,3.77-.75,2.52-3.24,1.83-4.65,2.53-.94.46-.51,1.61-2.06,1.81-3.19.41-14.9.06-16.02-3.43-1.5-4.64,7.51-6.44,5.66-11.95-2.43-7.25-5.08-4.94-9.89-4.87-2.5.04-7.85-1.31-10.08,1.83-.21.3-2.29,6.54-2.29,6.9.02,3.1,8.19,4.57,6.42,9.61-5.78-.32-18.93,2.75-23.85.46-7.35-3.43,5.76-7.21,6.76-7.9,3.22-2.23,2.52-7.84,3.42-11.26,3.71-13.99,4.83-27.19,8.62-40.93,2.62-9.5.69-16.18,14.03-14.48ZM328.36,776.13l-3.24-18.08c-7.17-10.91-7.13,4.18-7.72,9.41-.34,3.07-2.66,5.4-.67,9.07,1.86,3.42,8.64,1.11,11.62-.39Z"/>
      <path class="cls-8" d="M453.21,733.21l-1.72,6.84-10.53,1.22-.63,5.56-2.66.05c-.95,2.4,1.62,1.46,1.85,2.42.12.52.07,10.25-.09,10.77-.44,1.47-2.96,1.25-2.67,1.94,1.97,1.67,2.29,4.93,2.63,7.46.88,6.45-.36,18.07,1.46,23.32,2.13,6.14,6.15,2.51,10.12,2.64,3.71.12,6.73,1.43,11.01.99,13.3-1.36,2.19-11.9,7.5-19.33,7.54-3.35,7.43,6.27,7.68,11.49.44,9.14,1.19,16.55-9.68,17.94-8.01,1.02-15.93.66-23.82-.95l-19.79,1.5-3.22-2.38c-2.7-7.63,7.34-8.23,9.45-10.3,2.56-2.52.21-12.84.16-16.79-.13-8.99.31-18.53-.13-27.49-.08-1.68-.78-7.3-1.56-8.34-2.31-3.08-7.99,2.1-10.04-3.78-.31-1.03.2-1.89.45-2.83,1.91-7.1,4.16-4.04,8.88-4.2,9.12-.32,17.11-2.94,25.32,2.27Z"/>
      <path class="cls-8" d="M687.24,775.34l.15,19.57c.99,2.88,7.62,1.59,8.84,6.81,1.67,7.11-11.81,4.64-15.91,4.76s-13.15,3.51-9.12-5.45c1.34-2.98,6.27-2.89,7.31-4.61,2.3-3.79.43-8.56.42-12.34-.01-11.63.4-24.6-.68-35.83-.1-1,.85-2.26.57-3.47-.06-.24-2.57-4.01-2.78-4.12-2.49-1.35-4.38,1.6-6.24-4.77,3.43-1.24,7.05-2.31,10.7-2.69,9.17-.96,24.46-.11,32.38,5.02,3.37,2.18,9.01,9.77,9.13,13.81.29,10.03-7.42,19.93-17.29,21.98-6.11,1.27-11.4-1.66-17.5,1.34ZM690.68,741.6c-7.97,1.42-4.22,4.58-3.87,8.47.25,2.79-1.41,7.93-1.28,8.97.12.93,2.26,4.8,3.02,5.35,4.22,3.06,22.84.07,24.2-6.24,2.96-13.74-10.72-18.57-22.07-16.55ZM681.74,743.23h-1.83v.9h1.83v-.9Z"/>
      <path class="cls-8" d="M258.75,775.34c2.06,4.26-2.36,18.62,1.54,21.16,1.4.91,9.08,2.64,8.19,6.4-1.31,5.58-12.61,3.46-17.52,3.64-2.2.08-7.53,2.56-8.6-.6-1.34-10.05,8.71-4.41,8.98-15.62.29-11.79-1.3-23.84-.85-35.65.18-4.75-1.58-8.79,2.76-11.45-5.3,1.42-4.62-3.84-9.98-2.88l-.66-4.5c1.75-2.61,23.08-3.13,26.7-2.73,9.3,1.03,18.6,5.25,22.84,13.86,5.54,11.25-4.64,24.71-15.91,27.02-5.69,1.17-11.42-1.37-17.49,1.34ZM262.18,741.6c-8.2,1.46-4.15,4.68-3.59,8.47.49,3.35-1.74,7.72-1.57,8.99.1.73,3,5.37,3.57,5.71,1.27.76,11.38.78,13.26.43,1.24-.23,9.17-4.06,9.73-4.95,2.02-3.15.73-9.61-1.12-12.77-3.82-6.53-13.55-7.08-20.29-5.89Z"/>
      <path class="cls-8" d="M566.53,736.41c1.36,2.29,2.47,2.21,2.28,6.21-.27,5.78-9.8,26.37-16.72,21.78-6.68-4.43,6.26-9.42,6.72-14.29.24-2.57-1.31-.15-3.4-1.12-5.8-2.69-6.11-14.07.45-16.48,7.04-2.59,7.4-1.61,10.67,3.9Z"/>
      <path class="cls-3" d="M316.74,776.52c-1.99-3.66.33-5.99.67-9.07"/>
      <rect class="cls-3" x="679.91" y="743.23" width="1.83" height=".9"/>
    </g>
  </g>
</svg>